# xmcd
#
# Track frame offsets:
#	150
#	15624
#	39095
#	50147
#	64244
#	74409
#	88332
#	92414
#	104280
#	115369
#	126293
#	135980
#	143802
#	153199
#	168293
#	178610
#	194759
#	208904
#	223674
#
# Disc length: 3399 seconds
#
# Revision: 3
# Processed by: cddbd v1.5.2PL0 Copyright (c) Steve Scherf et al.
# Submitted via: audiograbber 1.83.01
#
DISCID=190d4513
DTITLE=Johnny Cash - Man In Black: Live In Denmark ·1971·
DYEAR=2006
DGENRE=Country
TTITLE0=Johnny Cash - A Boy Name Sue
TTITLE1=Johnny Cash - Sunday Mornin' Comin' Down
TTITLE2=Johnny Cash - I Walk The Line
TTITLE3=Carl Perkins - Blue Suede Shoes
TTITLE4=Carl Perkins - Matchbox
TTITLE5=Johnny Cash - Me And Bobby McGee
TTITLE6=Johnny Cash - Guess Things Happen That Way
TTITLE7=The Statler Brothers - Bed Of Roses
TTITLE8=The Statler Brothers - Flowers On The Wall
TTITLE9=Johnny Cash - Folsom Prison Blues
TTITLE10=Johnny Cash and June Carter Cash - Darlin' Companion
TTITLE11=Johnny Cash and June Carter Cash - If I Were A Carpenter
TTITLE12=Johnny Cash and June Carter Cash - Help Me Make It Through The Night
TTITLE13=Johnny Cash - Man In Black
TTITLE14=Johnny Cash - Introduction To The Carter Family
TTITLE15=The Carter Family - A Song To Mama
TTITLE16=Johnny Cash, The Carter Family and The Statler Brothers - No Need To Wor
TTITLE16=ry
TTITLE17=Johnny Cash, The Carter Family and The Statler Brothers - Rock Of Ages
TTITLE18=Johnny Cash, Carl Perkins, The Carter Family and The Statler Brothers - 
TTITLE18=Children, Go Where I Send The
EXTD=
EXTT0=
EXTT1=
EXTT2=
EXTT3=
EXTT4=
EXTT5=
EXTT6=
EXTT7=
EXTT8=
EXTT9=
EXTT10=
EXTT11=
EXTT12=
EXTT13=
EXTT14=
EXTT15=
EXTT16=
EXTT17=
EXTT18=
PLAYORDER=
